<?xml version="1.0" encoding="utf-8"?>
<!-- Generator: Adobe Illustrator 28.0.0, SVG Export Plug-In . SVG Version: 6.00 Build 0)  -->
<svg version="1.1" baseProfile="tiny" id="Слой_1"
	 xmlns="http://www.w3.org/2000/svg" xmlns:xlink="http://www.w3.org/1999/xlink" x="0px" y="0px" width="64px" height="64px"
	 viewBox="0 0 64 64" overflow="visible" xml:space="preserve">
<path fill="#60553C" d="M63,32c0,17.12-13.88,31-31,31c-7.93,0-15.17-2.98-20.65-7.88c-1.78-1.59-3.37-3.38-4.74-5.33
	C3.07,44.75,1,38.62,1,32C1,14.88,14.88,1,32,1S63,14.88,63,32z"/>
<path fill="#664714" d="M5.562,46.531c0,0,13.562-2.906,52.312,0c0,0-2.906,4.844-11.625,6.781s-13.562,2.906-13.562,2.906
	S16.219,52.344,5.562,46.531z"/>
<path fill="#3A6D35" d="M23,45.562c0,0,3.875-5.812,9.688-5.812s5.812-2.906,5.812-2.906s0.969,3.875,3.875,4.844
	s10.656,4.844,9.688,6.781s-29.062,0-29.062,0V45.562z"/>
<path fill="#FFB600" d="M44.262,11.656v29.43l-4.905,7.357V21.466l-4.905,2.452v19.62l-2.505,4.905l-2.4-4.905v-19.62l-4.905-2.452
	v26.977l-4.905-7.357v-29.43c0,0,0.025,0.025,0.098,0.025c1.177,0.466,12.753,4.611,24.353,0
	C44.213,11.681,44.238,11.656,44.262,11.656z"/>
<path fill="#4D8E46" d="M33.656,54.281c0,0-3.737-9.226-11.744-11.533s-11.21,0-14.413-4.613c0,0,2.669,12.302,5.872,13.07
	S26.183,48.899,33.656,54.281z"/>
<rect x="29.094" y="1" fill="#FFB600" width="5.812" height="21.312"/>
<path fill="#63AF58" d="M16.727,57.688c0,0,6.504-9.858,19.377-11.702s17.826,0.983,23.2-3.829c0,0-4.993,13.347-10.133,13.915
	C44.031,56.639,28.939,52.401,16.727,57.688z"/>
<path fill="#93631D" d="M57.88,46.53c0,0-0.97,13.56-26.16,13.56c-10.33,0-16.59-2.28-20.37-4.97c-1.78-1.59-3.37-3.38-4.74-5.33
	c-0.95-1.88-1.05-3.26-1.05-3.26c16.47,4.85,26.16,4.85,26.16,4.85S41.41,51.38,57.88,46.53z"/>
</svg>
